frame:0    pts:2002    pts_time:0.0667333
lavfi.scene_score=0.540787
frame:1    pts:4004    pts_time:0.133467
lavfi.scene_score=0.475760
frame:2    pts:30030   pts_time:1.001
lavfi.scene_score=0.272145
frame:3    pts:61061   pts_time:2.03537
lavfi.scene_score=0.296538
frame:4    pts:91091   pts_time:3.03637
lavfi.scene_score=0.261508
frame:5    pts:115115  pts_time:3.83717
lavfi.scene_score=0.287692
frame:6    pts:150150  pts_time:5.005
lavfi.scene_score=0.374398
frame:7    pts:155155  pts_time:5.17183
lavfi.scene_score=0.266028
frame:8    pts:264264  pts_time:8.8088
lavfi.scene_score=0.315306
frame:9    pts:10870860 pts_time:362.362
lavfi.scene_score=0.271799
frame:10   pts:13429416 pts_time:447.647
lavfi.scene_score=0.264740
frame:11   pts:15060045 pts_time:502.002
lavfi.scene_score=0.300201
frame:12   pts:15686671 pts_time:522.889
lavfi.scene_score=0.284985
frame:13   pts:16252236 pts_time:541.741
lavfi.scene_score=0.284962
frame:14   pts:18704686 pts_time:623.49
lavfi.scene_score=0.338124
frame:15   pts:21896875 pts_time:729.896
lavfi.scene_score=0.251037
frame:16   pts:22992970 pts_time:766.432
lavfi.scene_score=0.307750
frame:17   pts:63818755 pts_time:2127.29
lavfi.scene_score=0.256433
frame:18   pts:63913850 pts_time:2130.46
lavfi.scene_score=0.269426
frame:19   pts:64715651 pts_time:2157.19
lavfi.scene_score=0.252479
frame:20   pts:70260190 pts_time:2342.01
lavfi.scene_score=0.337842
frame:21   pts:77968891 pts_time:2598.96
lavfi.scene_score=0.255029
frame:22   pts:79639560 pts_time:2654.65
lavfi.scene_score=0.263582
frame:23   pts:80025946 pts_time:2667.53
lavfi.scene_score=0.265303
frame:24   pts:81337256 pts_time:2711.24
lavfi.scene_score=0.268792
frame:25   pts:93308215 pts_time:3110.27
lavfi.scene_score=0.268134
frame:26   pts:94424330 pts_time:3147.48
lavfi.scene_score=0.264994
frame:27   pts:99939840 pts_time:3331.33
lavfi.scene_score=0.358522
frame:28   pts:107089983 pts_time:3569.67
lavfi.scene_score=0.256072
frame:29   pts:107526419 pts_time:3584.21
lavfi.scene_score=0.389600
frame:30   pts:108146038 pts_time:3604.87
lavfi.scene_score=0.378698
frame:31   pts:117265148 pts_time:3908.84
lavfi.scene_score=0.259489
frame:32   pts:122540418 pts_time:4084.68
lavfi.scene_score=0.254728
frame:33   pts:130144014 pts_time:4338.13
lavfi.scene_score=0.254734
frame:34   pts:131300169 pts_time:4376.67
lavfi.scene_score=0.297879
frame:35   pts:133432299 pts_time:4447.74
lavfi.scene_score=0.273795
frame:36   pts:134963829 pts_time:4498.79
lavfi.scene_score=0.251899
frame:37   pts:147730583 pts_time:4924.35
lavfi.scene_score=0.261181
frame:38   pts:147830683 pts_time:4927.69
lavfi.scene_score=0.298951
frame:39   pts:149923774 pts_time:4997.46
lavfi.scene_score=0.264258
frame:40   pts:150450300 pts_time:5015.01
lavfi.scene_score=0.301192
frame:41   pts:172746574 pts_time:5758.22
lavfi.scene_score=0.362181
frame:42   pts:173697524 pts_time:5789.92
lavfi.scene_score=0.256002
frame:43   pts:178858680 pts_time:5961.96
lavfi.scene_score=0.251305
frame:44   pts:218854636 pts_time:7295.15
lavfi.scene_score=0.250832
frame:45   pts:219286067 pts_time:7309.54
lavfi.scene_score=0.312276
frame:46   pts:220202983 pts_time:7340.1
lavfi.scene_score=0.275325
frame:47   pts:224716492 pts_time:7490.55
lavfi.scene_score=0.349366
frame:48   pts:226414188 pts_time:7547.14
lavfi.scene_score=0.399875
